<svg width="1200" height="276" viewBox="0 0 1200 276" fill="none" xmlns="http://www.w3.org/2000/svg">
<path d="M1200 3.15332V272.847H1161.47V3.15332H1200Z" fill="#EEEEEE"/>
<path d="M1154.41 190.012V232.778C1154.41 259.747 1136.69 275.158 1112.03 275.158C1087.76 275.158 1069.65 259.747 1069.65 232.778V178.069H1108.18V234.704C1108.18 238.557 1109.33 240.484 1112.03 240.484C1114.73 240.484 1115.88 238.557 1115.88 234.704V190.012C1115.88 173.831 1105.87 157.649 1095.46 140.312C1083.14 120.277 1069.65 98.702 1069.65 74.0443V43.2222C1069.65 16.6381 1088.14 0.841797 1112.42 0.841797C1136.69 0.841797 1154.41 16.2529 1154.41 43.2222V85.9878H1115.88V41.2958C1115.88 37.443 1114.73 35.5166 1112.03 35.5166C1109.33 35.5166 1108.18 37.443 1108.18 41.2958V74.0443C1108.18 90.2259 1118.2 106.407 1128.98 123.745C1141.31 143.779 1154.41 165.355 1154.41 190.012Z" fill="#EEEEEE"/>
<path d="M1062.65 3.15332V37.8282H1047.24V117.195H1060.73V151.87H1047.24V238.172H1064.58V272.847H1008.72V3.15332H1062.65Z" fill="#EEEEEE"/>
<path d="M1000.92 3.15332V272.847H962.393V155.723H954.687V272.847H916.16V3.15332H954.687V121.048H962.393V3.15332H1000.92Z" fill="#EEEEEE"/>
<path d="M865.983 130.68H908.364V272.847H869.836V257.436L869.066 257.051C865.213 268.994 857.507 275.158 848.261 275.158C834.005 275.158 823.603 259.747 823.603 232.778V43.2222C823.603 16.6381 842.096 0.841797 866.369 0.841797C890.641 0.841797 908.364 16.2529 908.364 43.2222V105.252H869.836V41.2958C869.836 37.443 868.68 35.5166 865.983 35.5166C863.286 35.5166 862.131 37.443 862.131 41.2958V236.246C862.131 240.098 863.286 242.025 865.983 242.025C868.68 242.025 869.836 240.098 869.836 236.246V165.355H865.983V130.68Z" fill="#EEEEEE"/>
<path d="M777.28 159.19C777.28 155.337 776.124 153.411 773.427 153.411H769.574V272.847H731.046V3.15332H773.812C801.937 3.15332 815.807 14.7116 815.807 41.681V96.3902C815.807 119.507 814.266 130.68 799.626 135.688V136.459C814.266 141.082 815.807 152.641 815.807 175.757V237.401C815.807 254.739 816.192 260.133 820.43 272.076V272.847H780.747C778.05 262.444 777.28 255.509 777.28 237.787V159.19ZM777.28 43.6073C777.28 39.7546 776.124 37.8282 773.427 37.8282H769.574V118.736H773.427C776.124 118.736 777.28 116.81 777.28 112.957V43.6073Z" fill="#EEEEEE"/>
<path d="M723.251 43.2222V232.778C723.251 259.747 705.528 275.158 680.871 275.158C656.213 275.158 638.49 259.747 638.49 232.778V43.2222C638.49 16.6381 656.984 0.841797 681.256 0.841797C705.528 0.841797 723.251 16.2529 723.251 43.2222ZM684.723 41.2958C684.723 37.443 683.568 35.5166 680.871 35.5166C678.174 35.5166 677.018 37.443 677.018 41.2958V234.704C677.018 238.557 678.174 240.484 680.871 240.484C683.568 240.484 684.723 238.557 684.723 234.704V41.2958Z" fill="#EEEEEE"/>
<path d="M631.447 41.681V88.6847C631.447 111.801 629.906 122.974 615.265 127.983V128.753C629.906 133.377 631.447 144.935 631.447 168.052V234.319C631.447 261.288 617.577 272.847 589.066 272.847H546.686V3.15332H589.452C617.577 3.15332 631.447 14.7116 631.447 41.681ZM592.919 43.6073C592.919 39.7546 591.763 37.8282 589.066 37.8282H585.214V111.031H589.066C591.763 111.031 592.919 109.104 592.919 105.252V43.6073ZM592.919 151.485C592.919 147.632 591.763 145.706 589.066 145.706H585.214V238.172H589.066C591.763 238.172 592.919 236.245 592.919 232.393V151.485Z" fill="#EEEEEE"/>
<path d="M506.307 3.15332V37.8282H487.043V272.847H448.516V37.8282H429.252V3.15332H506.307Z" fill="#EEEEEE"/>
<path d="M384.855 159.19C384.855 155.337 383.699 153.411 381.002 153.411H377.149V272.847H338.622V3.15332H381.387C409.512 3.15332 423.382 14.7116 423.382 41.681V96.3902C423.382 119.507 421.841 130.68 407.201 135.688V136.459C421.841 141.082 423.382 152.641 423.382 175.757V237.401C423.382 254.739 423.768 260.133 428.006 272.076V272.847H388.322C385.625 262.444 384.855 255.509 384.855 237.787V159.19ZM384.855 43.6073C384.855 39.7546 383.699 37.8282 381.002 37.8282H377.149V118.736H381.002C383.699 118.736 384.855 116.81 384.855 112.957V43.6073Z" fill="#EEEEEE"/>
<path d="M330.856 3.15332V37.8282H315.445V117.195H328.93V151.87H315.445V238.172H332.783V272.847H276.917V3.15332H330.856Z" fill="#EEEEEE"/>
<path d="M269.874 41.681V88.6847C269.874 111.801 268.333 122.974 253.692 127.983V128.753C268.333 133.377 269.874 144.935 269.874 168.052V234.319C269.874 261.288 256.004 272.847 227.494 272.847H185.113V3.15332H227.879C256.004 3.15332 269.874 14.7116 269.874 41.681ZM231.346 43.6073C231.346 39.7546 230.191 37.8282 227.494 37.8282H223.641V111.031H227.494C230.191 111.031 231.346 109.104 231.346 105.252V43.6073ZM231.346 151.485C231.346 147.632 230.191 145.706 227.494 145.706H223.641V238.172H227.494C230.191 238.172 231.346 236.245 231.346 232.393V151.485Z" fill="#EEEEEE"/>
<path d="M177.317 43.2222V232.778C177.317 259.747 159.595 275.158 134.937 275.158C110.279 275.158 92.5566 259.747 92.5566 232.778V43.2222C92.5566 16.6381 111.05 0.841797 135.322 0.841797C159.595 0.841797 177.317 16.2529 177.317 43.2222ZM138.79 41.2958C138.79 37.443 137.634 35.5166 134.937 35.5166C132.24 35.5166 131.084 37.443 131.084 41.2958V234.704C131.084 238.557 132.24 240.484 134.937 240.484C137.634 240.484 138.79 238.557 138.79 234.704V41.2958Z" fill="#EEEEEE"/>
<path d="M46.2332 159.19C46.2332 155.337 45.0773 153.411 42.3804 153.411H38.5276V272.847H0V3.15332H42.7657C70.8908 3.15332 84.7608 14.7116 84.7608 41.681V96.3902C84.7608 119.507 83.2197 130.68 68.5792 135.688V136.459C83.2197 141.082 84.7608 152.641 84.7608 175.757V237.401C84.7608 254.739 85.146 260.133 89.3841 272.076V272.847H49.7006C47.0037 262.444 46.2332 255.509 46.2332 237.787V159.19ZM46.2332 43.6073C46.2332 39.7546 45.0773 37.8282 42.3804 37.8282H38.5276V118.736H42.3804C45.0773 118.736 46.2332 116.81 46.2332 112.957V43.6073Z" fill="#EEEEEE"/>
</svg>
